<svg width="246" height="44" viewBox="0 0 246 44" fill="none" xmlns="http://www.w3.org/2000/svg">
<path d="M66.048 25.64V28.968L64.816 29.08L64.576 27H57.712L57.488 28.968L56.24 29.08V25.64H57.088C57.536 25.3947 57.888 25.0213 58.144 24.52C58.4 24.0187 58.608 23.3093 58.768 22.392C58.928 21.4747 59.0827 20.184 59.232 18.52L59.408 16.728H64.704L64.64 23.768L64.672 25.64H66.048ZM63.12 23.912L63.056 17.992H60.752L60.672 18.808C60.4907 20.856 60.2613 22.392 59.984 23.416C59.7067 24.4293 59.312 25.1707 58.8 25.64H63.072L63.12 23.912ZM73.0563 23.768L73.1203 27H71.5203L71.5683 23.912L71.5523 20.712H69.8723L69.8083 21.24C69.6483 22.7333 69.4669 23.8853 69.2643 24.696C69.0723 25.5067 68.8269 26.0987 68.5283 26.472C68.2403 26.8347 67.8563 27.0587 67.3763 27.144L66.9923 27.16L66.7363 25.912C67.1309 25.784 67.4403 25.5653 67.6643 25.256C67.8883 24.936 68.0696 24.4507 68.2083 23.8C68.3469 23.1493 68.4749 22.2053 68.5923 20.968L68.7363 19.656L68.7203 19.624H73.1363L73.0563 23.768ZM75.4515 23.912L75.3875 19.656L76.9715 19.592L76.9395 24.744H77.0355L79.9955 19.624H81.5955L81.5315 23.72L81.5955 27H80.0115L80.0595 24.024L80.0755 21.784H79.9635L76.9555 27H75.3875L75.4515 23.912ZM90.0799 23.768L90.1279 27H88.5279L88.5919 23.912L86.9599 23.896L85.4239 23.928L85.4719 27H83.8719L83.9359 23.912L83.8879 19.624H85.4879L85.4399 22.696L87.0239 22.712H88.5759L88.5599 19.624H90.1439L90.0799 23.768ZM95.1038 19.48C95.8398 19.48 96.4211 19.656 96.8478 20.008C97.2744 20.36 97.4878 20.8507 97.4878 21.48C97.4878 21.672 97.4558 22.312 97.3918 23.4C97.3278 24.4667 97.2958 25.0907 97.2958 25.272C97.2958 25.4747 97.3278 25.6187 97.3918 25.704C97.4664 25.7787 97.5891 25.816 97.7598 25.816C97.8664 25.816 98.0264 25.7947 98.2398 25.752L98.3838 25.864L98.2238 26.76C97.9144 26.952 97.5784 27.0693 97.2158 27.112C96.8851 27.08 96.6184 26.9627 96.4158 26.76C96.2131 26.5467 96.0904 26.2693 96.0477 25.928H95.9358C95.3918 26.504 94.8371 26.904 94.2718 27.128C93.5358 27.1173 92.9544 26.9253 92.5278 26.552C92.1118 26.1787 91.9038 25.672 91.9038 25.032C91.9038 24.0827 92.4211 23.4907 93.4557 23.256L95.9838 22.696L95.9998 21.832C95.9998 21.4373 95.8984 21.1387 95.6958 20.936C95.5038 20.7333 95.2211 20.632 94.8478 20.632C94.4851 20.632 94.1224 20.7173 93.7598 20.888C93.3971 21.048 92.9971 21.304 92.5598 21.656L92.4318 21.576L92.2238 20.44C93.1624 19.8 94.1224 19.48 95.1038 19.48ZM93.9038 24.136C93.7118 24.1787 93.5731 24.2533 93.4878 24.36C93.4024 24.456 93.3598 24.6107 93.3598 24.824C93.3598 25.144 93.4451 25.3947 93.6158 25.576C93.7971 25.7573 94.0371 25.848 94.3358 25.848C94.8371 25.848 95.3704 25.5227 95.9358 24.872L95.9838 23.64L93.9038 24.136ZM109.104 25.832V28.76L108.032 28.856L107.84 27H102.736L102.544 28.76L101.472 28.856V25.832H102.064C102.384 25.6293 102.635 25.3573 102.816 25.016C102.997 24.6747 103.141 24.2 103.248 23.592C103.365 22.9733 103.483 22.0987 103.6 20.968L103.744 19.624H108.112L108.048 23.768L108.08 25.832H109.104ZM106.608 23.912L106.56 20.696H104.896L104.832 21.224C104.704 22.5787 104.539 23.6027 104.336 24.296C104.144 24.9787 103.867 25.4907 103.504 25.832H106.576L106.608 23.912ZM113.641 19.48C114.675 19.48 115.47 19.8053 116.025 20.456C116.59 21.096 116.873 22.008 116.873 23.192C116.873 24.4613 116.574 25.4373 115.977 26.12C115.379 26.8027 114.531 27.144 113.433 27.144C112.398 27.144 111.598 26.824 111.033 26.184C110.478 25.5333 110.201 24.616 110.201 23.432C110.201 22.1627 110.499 21.1867 111.097 20.504C111.694 19.8213 112.542 19.48 113.641 19.48ZM113.545 20.616C112.329 20.616 111.721 21.4373 111.721 23.08C111.721 24.0827 111.87 24.824 112.169 25.304C112.467 25.784 112.926 26.024 113.545 26.024C114.153 26.024 114.606 25.8213 114.905 25.416C115.203 25.0107 115.353 24.392 115.353 23.56C115.353 22.5573 115.203 21.816 114.905 21.336C114.606 20.856 114.153 20.616 113.545 20.616ZM121.342 19.48C121.683 19.48 122.03 19.5173 122.382 19.592C122.734 19.6667 123.043 19.768 123.31 19.896L123.038 21.256L122.878 21.32C122.313 20.9893 121.79 20.824 121.31 20.824C120.745 20.824 120.302 21.0373 119.982 21.464C119.662 21.8907 119.502 22.488 119.502 23.256C119.502 24.0773 119.667 24.7173 119.998 25.176C120.329 25.624 120.798 25.848 121.406 25.848C121.939 25.848 122.51 25.688 123.118 25.368L123.262 25.464L123.102 26.776C122.451 27.0213 121.801 27.144 121.15 27.144C120.147 27.144 119.363 26.8133 118.798 26.152C118.243 25.48 117.966 24.5573 117.966 23.384C117.966 22.168 118.265 21.2133 118.862 20.52C119.459 19.8267 120.286 19.48 121.342 19.48ZM124.998 23.912L124.95 19.736L126.55 19.592L126.486 23.768L126.534 27H124.934L124.998 23.912ZM128.262 22.984C129.158 24.2213 130.129 25.464 131.174 26.712L131.158 26.904C130.881 26.9787 130.582 27.032 130.262 27.064C129.942 27.1067 129.75 27.1333 129.686 27.144L129.526 27.08C128.363 25.608 127.419 24.2907 126.694 23.128V23.016L128.854 20.328L129.254 19.624H130.966L128.262 22.984ZM132.592 23.912L132.528 19.656L134.112 19.592L134.08 24.744H134.176L137.136 19.624H138.736L138.672 23.72L138.736 27H137.152L137.2 24.024L137.216 21.784H137.104L134.096 27H132.528L132.592 23.912Z" fill="black"/>
<path d="M191.827 19.544C192.819 19.544 193.587 19.8693 194.131 20.52C194.686 21.16 194.963 22.0667 194.963 23.24C194.963 24.4773 194.675 25.4373 194.099 26.12C193.523 26.792 192.702 27.128 191.635 27.128C190.633 27.128 189.854 26.808 189.299 26.168C188.755 25.5173 188.483 24.6053 188.483 23.432C188.483 22.1947 188.771 21.24 189.347 20.568C189.934 19.8853 190.761 19.544 191.827 19.544ZM191.747 20.44C191.075 20.44 190.563 20.6693 190.211 21.128C189.859 21.5867 189.683 22.2587 189.683 23.144C189.683 24.168 189.854 24.936 190.195 25.448C190.547 25.96 191.054 26.216 191.715 26.216C192.387 26.216 192.899 25.992 193.251 25.544C193.603 25.096 193.779 24.424 193.779 23.528C193.779 22.5147 193.603 21.7467 193.251 21.224C192.91 20.7013 192.409 20.44 191.747 20.44ZM201.293 19.752L201.197 20.6L199.853 20.568H198.957L198.925 23.784L198.973 27H197.725L197.773 23.896L197.741 20.568H196.845L195.485 20.6L195.405 20.488L195.485 19.672H201.197L201.293 19.752ZM207.555 18.968C208.195 18.968 208.718 19.1333 209.123 19.464C209.539 19.784 209.747 20.2107 209.747 20.744C209.747 21.1707 209.598 21.6507 209.299 22.184C209 22.7067 208.526 23.3467 207.875 24.104L206.259 25.944L206.291 26.008H209.251L210.595 25.912L210.691 25.992L210.515 27.064L208.883 27H205.299L204.707 27.032L204.627 26.968V26.168L206.851 23.752C207.427 23.112 207.848 22.584 208.115 22.168C208.382 21.7413 208.515 21.368 208.515 21.048C208.515 20.76 208.408 20.5253 208.195 20.344C207.982 20.152 207.683 20.056 207.299 20.056C206.915 20.056 206.531 20.152 206.147 20.344C205.774 20.536 205.432 20.8027 205.123 21.144H204.963L204.755 20.168C205.171 19.784 205.619 19.4907 206.099 19.288C206.579 19.0747 207.064 18.968 207.555 18.968ZM213.188 25.608C213.636 25.8853 213.86 26.2427 213.86 26.68C213.86 27.3733 213.359 28.088 212.356 28.824L211.924 28.424V28.312C212.511 27.8533 212.804 27.384 212.804 26.904C212.804 26.616 212.639 26.3653 212.308 26.152V26.024C212.607 25.8213 212.9 25.6827 213.188 25.608ZM220.813 19.064L220.685 20.072L220.589 20.168L219.421 20.072H217.053L216.989 22.568L217.997 22.776C218.989 22.9893 219.693 23.2987 220.109 23.704C220.525 24.1093 220.733 24.6427 220.733 25.304C220.733 25.944 220.567 26.5093 220.237 27C219.917 27.4907 219.463 27.8747 218.877 28.152C218.301 28.4293 217.645 28.568 216.909 28.568C216.461 28.568 215.959 28.5147 215.405 28.408L215.309 27.288L215.421 27.176C216.018 27.432 216.599 27.56 217.164 27.56C217.89 27.56 218.466 27.3733 218.893 27C219.319 26.616 219.533 26.12 219.533 25.512C219.533 25.032 219.367 24.648 219.036 24.36C218.717 24.072 218.189 23.8587 217.453 23.72L216.093 23.464L215.981 23.352L216.061 19.176L216.269 19L217.117 19.032H219.277L220.749 18.968L220.813 19.064ZM225.885 19.672H227.133L227.533 20.792L228.989 24.728H229.085L230.669 20.744L231.053 19.672H232.301L233.005 27H231.981L231.821 24.696L231.501 21.384H231.405L229.437 26.168H228.525L226.701 21.384H226.621L226.269 24.488L226.061 27H225.085L225.885 19.672Z" fill="black"/>
<path d="M23.0064 19.0953L23.0072 15L16 22.0096L23.0072 29.0185L23.0064 24.9232L32.992 24.9248V29.0185L40 22.0096L32.992 15V19.0953H23.0064Z" fill="#010002"/>
</svg>
