<?xml version="1.0" encoding="utf-8"?><svg xmlns="http://www.w3.org/2000/svg" xmlns:xlink="http://www.w3.org/1999/xlink"><symbol viewBox="0 0 34.69 24.05" id="car" xmlns="http://www.w3.org/2000/svg"><path d="M26.355 15.979a4.378 4.378 0 00-4.373 4.373 4.378 4.378 0 004.373 4.372 4.378 4.378 0 004.373-4.372 4.378 4.378 0 00-4.373-4.373zm0 6.559a2.189 2.189 0 01-2.186-2.186c0-1.206.98-2.187 2.186-2.187s2.187.98 2.187 2.187c0 1.205-.98 2.186-2.187 2.186zm-14.941-6.559a4.378 4.378 0 00-4.373 4.373 4.378 4.378 0 004.373 4.372 4.378 4.378 0 004.373-4.372 4.378 4.378 0 00-4.373-4.373zm0 6.559a2.189 2.189 0 01-2.186-2.186c0-1.206.98-2.187 2.186-2.187s2.187.98 2.187 2.187c0 1.205-.98 2.186-2.187 2.186zM29.3 3.462a1.094 1.094 0 00-.977-.602h-5.758v2.186h5.084l2.977 5.921 1.954-.982-3.28-6.523z"/><path d="M23.076 19.295h-8.273v2.186h8.273v-2.186zm-14.942 0h-3.79a1.093 1.093 0 100 2.186h3.79a1.093 1.093 0 100-2.186zm26.483-6.684l-2.15-2.77a1.092 1.092 0 00-.864-.422h-7.944V1.766c0-.604-.49-1.093-1.094-1.093H4.345a1.093 1.093 0 100 2.186h17.127v7.653c0 .604.49 1.093 1.093 1.093h8.502l1.593 2.051v5.639h-3.025a1.093 1.093 0 100 2.186h4.118c.604 0 1.093-.49 1.093-1.093v-7.106c0-.243-.08-.479-.23-.67zM8.062 13.756h-5.03a1.093 1.093 0 100 2.186h5.03a1.093 1.093 0 100-2.186zm2.514-4.301H1.247a1.093 1.093 0 100 2.187h9.33a1.093 1.093 0 100-2.187z"/><path d="M12.362 5.155h-9.33a1.093 1.093 0 100 2.187h9.33a1.093 1.093 0 100-2.187z"/></symbol><symbol viewBox="0 0 30.89 24.55" id="checkmark" xmlns="http://www.w3.org/2000/svg"><g clip-path="url(#abclip0_2_1093)"><path d="M28.414 1.655C26.483-.552 23.172-.552 21.24 1.38L11.034 11.586 8.829 9.38c-1.931-1.93-5.242-1.93-7.173 0H1.38c-1.93 1.931-1.93 5.242 0 7.173l6.07 6.069C8.551 23.724 9.93 24 11.033 24c1.38 0 2.483-.552 3.587-1.38L28.414 8.828c1.93-1.93 1.93-5.24 0-7.172z"/></g><defs><clipPath id="abclip0_2_1093"><path d="M0 0h30.069v24H0z"/></clipPath></defs></symbol><symbol viewBox="0 0 24.53 24.53" id="close" xmlns="http://www.w3.org/2000/svg"><g clip-path="url(#acclip0_2_1092)"><path d="M16.267 12L23.2 5.067c1.067-1.067 1.067-2.667 0-3.6l-.533-.534C21.6-.133 20-.133 19.067.933L12 7.733 5.067.8C4-.267 2.4-.267 1.333.8L.8 1.333C-.267 2.4-.267 4 .8 4.933L7.733 12 .8 18.933C-.267 20-.267 21.6.8 22.533l.533.667c1.067 1.067 2.667 1.067 3.6 0L12 16.267l6.933 6.933c1.067 1.067 2.667 1.067 3.6 0l.534-.533c1.066-1.067 1.066-2.667 0-3.6L16.267 12z"/></g><defs><clipPath id="acclip0_2_1092"><path d="M0 0h24v24H0z"/></clipPath></defs></symbol><symbol viewBox="0 0 38.22 38.22" id="cross" xmlns="http://www.w3.org/2000/svg"><path d="M18.213.326l-6.67 6.67a1.113 1.113 0 000 1.574l3.15 3.149c.264.263.626.367.968.311v3.63h-3.63a1.113 1.113 0 00-.312-.967l-3.149-3.15a1.113 1.113 0 00-1.574 0l-6.67 6.67a1.113 1.113 0 000 1.574l6.67 6.67c.434.434 1.14.434 1.574 0l3.15-3.15c.257-.257.368-.62.31-.967h3.63v3.63a1.111 1.111 0 00-.967.311l-3.15 3.15a1.113 1.113 0 000 1.574l6.67 6.669c.435.435 1.14.435 1.575 0l6.669-6.67a1.114 1.114 0 000-1.574l-3.15-3.149a1.11 1.11 0 00-.967-.311v-3.63h3.63c-.057.348.054.71.312.967l3.149 3.15c.434.434 1.14.434 1.574 0l6.67-6.67a1.113 1.113 0 000-1.574l-6.67-6.67a1.114 1.114 0 00-1.574 0l-3.15 3.15c-.257.258-.368.62-.31.967h-3.63v-3.63c.34.056.703-.047.967-.31l3.149-3.15a1.113 1.113 0 000-1.574l-6.67-6.67a1.113 1.113 0 00-1.574 0zm4.308 9.031l-.507-.506c-.698-.699-1.9-.204-1.9.787v7.135c0 .615.498 1.114 1.113 1.114h7.135c.989 0 1.488-1.2.788-1.9l-.507-.507 1.575-1.575L35.313 19l-5.095 5.095-1.575-1.575.507-.506c.698-.699.203-1.9-.788-1.9h-7.135c-.615 0-1.113.498-1.113 1.113v7.135c0 .992 1.202 1.485 1.9.787l.506-.506 1.575 1.575L19 35.312l-5.094-5.095 1.574-1.574.507.506c.698.699 1.9.204 1.9-.787v-7.135c0-.615-.498-1.114-1.113-1.114H9.638c-.988 0-1.487 1.2-.787 1.9l.507.507-1.575 1.575L2.688 19l5.095-5.095 1.575 1.575-.507.506c-.699.7-.203 1.9.787 1.9h7.136c.615 0 1.113-.498 1.113-1.113V9.638c0-.988-1.2-1.488-1.9-.787l-.507.506-1.574-1.574L19 2.688l5.095 5.095-1.574 1.574z"/></symbol><symbol viewBox="0 0 64 64" id="ecology" xmlns="http://www.w3.org/2000/svg"><path d="M35.875 32.181V21.817h4.15c9.893 0 17.942-8.049 17.942-17.942 0-1.035-.84-1.875-1.875-1.875h-6.027C43.037 2 36.94 6.063 34 11.962 31.058 6.062 24.962 2 17.933 2h-6.025c-1.035 0-1.875.84-1.875 1.875 0 9.893 8.049 17.942 17.942 17.942h4.15V32.18C15.325 33.152 2 47.081 2 64.125 2 65.16 2.84 66 3.875 66h60.25C65.16 66 66 65.16 66 64.125c0-17.044-13.325-30.973-30.125-31.944zM50.065 5.75h4.028c-.92 6.942-6.879 12.317-14.068 12.317h-4.027c.92-6.943 6.877-12.317 14.067-12.317zm-22.09 12.317c-7.19 0-13.148-5.375-14.068-12.317h4.026c7.19 0 13.148 5.375 14.069 12.317h-4.027zM5.81 62.25c.929-14.33 11.435-22.005 18.282-24.584v4.712c0 .572-.223 1.11-.628 1.515l-6.025 6.025a5.898 5.898 0 000 8.33l4.001 4.002H5.81zm20.933 0l-6.652-6.653a2.14 2.14 0 010-3.028l6.025-6.025a5.853 5.853 0 001.726-4.166v-5.83A28.366 28.366 0 0134 35.876c4.914 0 9.677 1.259 13.906 3.659L37.522 49.918a5.888 5.888 0 000 8.33l4.001 4.002h-14.78zm20.084 0l-6.653-6.653a2.14 2.14 0 010-3.028L51.1 41.643A28.253 28.253 0 0162.188 62.25H46.827z"/></symbol><symbol viewBox="0 0 24 24" id="fb" xmlns="http://www.w3.org/2000/svg"><path d="M24 22.692c0 .72-.589 1.308-1.308 1.308h-6.147v-9.286h3.139l.458-3.597h-3.597V8.828c0-1.046.261-1.765 1.766-1.765h1.896v-3.27c-.327-.065-1.439-.13-2.812-.13-2.746 0-4.643 1.7-4.643 4.773v2.681H9.613v3.597h3.139V24H1.308C.588 24 0 23.411 0 22.692V1.308C0 .588.589 0 1.308 0h21.384C23.412 0 24 .589 24 1.308v21.384z"/></symbol><symbol viewBox="0 0 18 24" id="hourglass" xmlns="http://www.w3.org/2000/svg"><path d="M17 22h-1v-3.273a5.755 5.755 0 00-1.903-4.274l-1.693-1.523a1.238 1.238 0 01-.414-.93c0-.359.147-.689.414-.929l1.693-1.523A5.76 5.76 0 0016 5.273V2h1a1 1 0 100-2H1a1 1 0 100 2h1v3.273c0 1.628.693 3.186 1.903 4.274l1.693 1.523c.267.241.414.571.414.93 0 .359-.147.689-.414.929l-1.693 1.523A5.76 5.76 0 002 18.727V22H1a1 1 0 100 2h16a1 1 0 100-2zM5 18.829c0-.735.286-1.425.806-1.945L8.47 14.22a.75.75 0 011.061 0l2.664 2.664c.52.52.806 1.21.806 1.945V22H5v-3.171z"/></symbol><symbol viewBox="0 0 24 24" id="insta" xmlns="http://www.w3.org/2000/svg"><path d="M21.123 0H2.877C1.307 0 0 1.243 0 2.812v18.376C0 22.758 1.308 24 2.877 24h18.246C22.693 24 24 22.758 24 21.188V2.812C24 1.242 22.692 0 21.123 0zm-3.859 3.728c0-.393.327-.72.72-.72h2.288c.393 0 .72.327.72.72V5.95c0 .392-.327.72-.72.72H18.05a.726.726 0 01-.72-.72l-.065-2.223zM12.033 7.39c2.55 0 4.643 2.027 4.643 4.577s-2.093 4.578-4.643 4.578-4.643-2.027-4.643-4.578c0-2.485 2.092-4.577 4.643-4.577zm9.678 13.602c0 .392-.327.72-.72.72H3.009a.726.726 0 01-.72-.72V9.744h2.944c-.393.588-.524 1.635-.524 2.289 0 3.989 3.27 7.259 7.325 7.259 4.054 0 7.324-3.27 7.324-7.26 0-.653-.065-1.7-.589-2.288h3.009l-.066 11.248z"/></symbol><symbol viewBox="0 0 12.87 27" id="left" xmlns="http://www.w3.org/2000/svg"><path d="M19 34L6.914 21.914a2 2 0 010-2.828L19 7"/></symbol><symbol viewBox="0 0 24 14.02" id="length" xmlns="http://www.w3.org/2000/svg"><path d="M7.006 4.095L7.007 0 0 7.01l7.007 7.008V9.924l9.985.002v4.093L24 7.01 16.992 0v4.095H7.006z"/></symbol><symbol viewBox="0 0 76 95" id="marker" xmlns="http://www.w3.org/2000/svg"><path d="M38 0C24.783 0 0 10 0 38.333 0 66.667 38 95 38 95s38-28.333 38-56.667C76 10 51.217 0 38 0z"/><path d="M22.767 37.432c-1.008 0-1.896-.176-2.664-.528-.768-.352-1.36-.84-1.776-1.464-.416-.64-.624-1.376-.624-2.208 0-.704.144-1.344.432-1.92a3.703 3.703 0 011.2-1.368 3 3 0 011.68-.504c.56 0 1.032.144 1.416.432.384.272.624.656.72 1.152-.832 0-1.496.224-1.992.672-.496.432-.744 1.024-.744 1.776 0 .688.208 1.24.624 1.656.416.416.968.624 1.656.624.848 0 1.544-.28 2.088-.84.56-.576.84-1.296.84-2.16 0-.752-.208-1.464-.624-2.136-.416-.672-1.04-1.488-1.872-2.448-.864-.992-1.52-1.84-1.968-2.544a4.488 4.488 0 01-.648-2.352c0-.832.232-1.576.696-2.232.464-.672 1.104-1.2 1.92-1.584.816-.384 1.736-.576 2.76-.576 1.296 0 2.328.304 3.096.912.784.608 1.176 1.424 1.176 2.448 0 .672-.168 1.216-.504 1.632a1.615 1.615 0 01-1.32.624c-.608 0-1.096-.248-1.464-.744.304-.224.544-.52.72-.888.176-.368.264-.752.264-1.152 0-.512-.152-.92-.456-1.224-.304-.304-.72-.456-1.248-.456-.64 0-1.168.232-1.584.696-.4.448-.6 1.024-.6 1.728 0 .64.184 1.24.552 1.8.368.544.944 1.248 1.728 2.112.64.688 1.152 1.28 1.536 1.776.4.496.736 1.072 1.008 1.728.288.64.432 1.336.432 2.088a4.78 4.78 0 01-.864 2.784c-.56.832-1.336 1.488-2.328 1.968-.976.48-2.064.72-3.264.72zm10.183-.288c-.768 0-1.392-.24-1.872-.72-.464-.48-.696-1.2-.696-2.16 0-.4.064-.92.192-1.56L32.206 25h3.456l-1.728 8.16c-.048.24-.072.464-.072.672 0 .656.24.984.72.984.448 0 .832-.184 1.152-.552.32-.384.576-.904.768-1.56L38.134 25h3.456l-1.728 8.16a2.97 2.97 0 00-.096.768c0 .32.072.552.216.696.16.128.416.192.768.192.448 0 .832-.192 1.152-.576.336-.384.6-.896.792-1.536h1.008c-.592 1.728-1.328 2.904-2.208 3.528-.864.608-1.736.912-2.616.912-.688 0-1.24-.192-1.656-.576-.4-.384-.64-.952-.72-1.704-.544.88-1.12 1.48-1.728 1.8-.592.32-1.2.48-1.824.48zM44.323 25h3.456l-.312 1.488c.544-.48 1.032-.848 1.464-1.104a2.855 2.855 0 011.44-.384c.512 0 .912.176 1.2.528.304.352.456.776.456 1.272 0 .464-.152.872-.456 1.224-.304.352-.728.528-1.272.528-.352 0-.592-.08-.72-.24-.112-.176-.2-.424-.264-.744a2.203 2.203 0 00-.144-.456c-.048-.096-.136-.144-.264-.144-.336 0-.624.072-.864.216-.224.128-.52.36-.888.696L45.235 37H41.78l2.544-12zm5.232 18a2.874 2.874 0 01-1.968-.744 2.297 2.297 0 01-.864-1.848c0-.688.176-1.256.528-1.704a3.84 3.84 0 011.368-1.08c.56-.256 1.304-.528 2.232-.816l2.904-13.704c.32-1.536.88-2.6 1.68-3.192.816-.592 1.712-.888 2.688-.888.752 0 1.408.248 1.968.744.576.48.864 1.096.864 1.848 0 .368-.024.696-.072.984h-1.128c.032-.352.048-.568.048-.648 0-.256-.088-.456-.264-.6a.99.99 0 00-.648-.216c-.336 0-.664.152-.984.456-.32.288-.552.792-.696 1.512L56.803 25h1.752l-.168.96H56.61l-2.76 12.96c-.32 1.552-.872 2.616-1.656 3.192a4.272 4.272 0 01-2.64.888zm-.552-2.136c.64 0 1.096-.624 1.368-1.872l.312-1.392c-.848.288-1.496.616-1.944.984-.464.384-.696.88-.696 1.488 0 .192.096.368.288.528a.963.963 0 00.672.264zM13.55 58.144c-1.088 0-1.92-.264-2.496-.792-.576-.544-.864-1.304-.864-2.28 0-.48.056-.936.168-1.368l2.568-12.024 3.552-.48-1.152 5.4c.448-.272.816-.448 1.104-.528.288-.096.576-.144.864-.144 1.888 0 2.832 1.368 2.832 4.104 0 1.104-.216 2.288-.648 3.552a7.44 7.44 0 01-2.112 3.216c-.976.896-2.248 1.344-3.816 1.344zm1.344-2.328c.496 0 .96-.304 1.392-.912.432-.624.776-1.392 1.032-2.304.256-.928.384-1.816.384-2.664 0-.64-.112-1.184-.336-1.632-.224-.448-.536-.672-.936-.672-.24 0-.512.04-.816.12-.288.064-.488.168-.6.312l-1.32 6.096a2.275 2.275 0 00-.072.552c0 .736.424 1.104 1.272 1.104zm9.632 2.28c-1.184 0-2.12-.304-2.808-.912-.688-.608-1.032-1.568-1.032-2.88 0-1.088.224-2.296.672-3.624a8.473 8.473 0 012.16-3.432c.992-.976 2.24-1.464 3.744-1.464 2.048 0 3.072 1.28 3.072 3.84v.024a.966.966 0 00.264.024c.528 0 1.136-.136 1.824-.408a9.553 9.553 0 001.872-1.032l.216.648c-.464.496-1.072.92-1.824 1.272a9.507 9.507 0 01-2.424.72c-.128 1.456-.456 2.728-.984 3.816-.528 1.088-1.208 1.928-2.04 2.52-.832.592-1.736.888-2.712.888zm.96-2.16c.384 0 .768-.216 1.152-.648.384-.448.72-1.048 1.008-1.8.288-.768.496-1.616.624-2.544-.432-.096-.648-.432-.648-1.008 0-.656.248-1.088.744-1.296-.032-.528-.112-.888-.24-1.08-.128-.208-.352-.312-.672-.312-.528 0-1.04.384-1.536 1.152-.496.768-.896 1.688-1.2 2.76-.304 1.072-.456 2.016-.456 2.832 0 .768.088 1.288.264 1.56.176.256.496.384.96.384zm8.963 2.208c-.912 0-1.672-.312-2.28-.936-.608-.624-.912-1.6-.912-2.928 0-1.184.232-2.424.696-3.72.48-1.312 1.184-2.416 2.112-3.312.944-.912 2.064-1.368 3.36-1.368.656 0 1.144.112 1.464.336.32.224.48.52.48.888v.168L39.634 46h3.456l-1.728 8.16a2.97 2.97 0 00-.096.768c0 .688.328 1.032.984 1.032.448 0 .832-.208 1.152-.624.336-.416.6-.96.792-1.632h1.008c-.592 1.728-1.328 2.904-2.208 3.528-.864.608-1.736.912-2.616.912-.672 0-1.216-.184-1.632-.552-.4-.384-.64-.936-.72-1.656a6.8 6.8 0 01-1.56 1.608c-.56.4-1.232.6-2.016.6zm1.56-2.328c.4 0 .792-.184 1.176-.552.4-.384.672-.904.816-1.56l1.152-5.424c0-.208-.08-.408-.24-.6-.16-.208-.408-.312-.744-.312-.64 0-1.216.376-1.728 1.128-.512.736-.912 1.632-1.2 2.688-.288 1.04-.432 1.96-.432 2.76 0 .8.112 1.312.336 1.536.24.224.528.336.864.336zM45.835 46h3.456l-.312 1.488c.544-.48 1.032-.848 1.464-1.104a2.855 2.855 0 011.44-.384c.512 0 .912.176 1.2.528.304.352.456.776.456 1.272 0 .464-.152.872-.456 1.224-.304.352-.728.528-1.272.528-.352 0-.592-.08-.72-.24-.112-.176-.2-.424-.264-.744a2.203 2.203 0 00-.144-.456c-.048-.096-.136-.144-.264-.144-.336 0-.624.072-.864.216-.224.128-.52.36-.888.696L46.747 58h-3.456l2.544-12zm10.272 12.144c-.912 0-1.672-.312-2.28-.936-.608-.624-.912-1.6-.912-2.928 0-1.184.232-2.424.696-3.72.48-1.312 1.184-2.416 2.112-3.312.944-.912 2.064-1.368 3.36-1.368.656 0 1.144.112 1.464.336.32.224.48.52.48.888v.096l1.176-5.52 3.552-.48-2.76 12.96c-.064.24-.096.472-.096.696 0 .64.328.96.984.96.288 0 .544-.048.768-.144-.064.8-.352 1.416-.864 1.848-.496.416-1.088.624-1.776.624-.64 0-1.184-.16-1.632-.48-.432-.336-.72-.84-.864-1.512-.96 1.328-2.096 1.992-3.408 1.992zm1.56-2.328c.352 0 .704-.152 1.056-.456.368-.304.64-.728.816-1.272l.096-.384 1.176-5.496c-.144-.56-.472-.84-.984-.84-.64 0-1.216.376-1.728 1.128-.512.736-.912 1.632-1.2 2.688-.288 1.04-.432 1.96-.432 2.76 0 .8.112 1.312.336 1.536.24.224.528.336.864.336z"/></symbol><symbol viewBox="0 0 43.83 68" id="measure" xmlns="http://www.w3.org/2000/svg"><path d="M53.836 60.031h-5.977v-4.25h2.663a1.992 1.992 0 100-3.984H47.86v-3.984h5.32a1.992 1.992 0 000-3.985h-5.32v-3.984h2.663a1.992 1.992 0 000-3.985H47.86v-3.984h5.32a1.992 1.992 0 000-3.984h-5.32v-3.985h2.663a1.992 1.992 0 100-3.984H47.86v-3.985h5.32a1.992 1.992 0 000-3.984h-5.32V7.97h2.663a1.992 1.992 0 000-3.985H47.86V1.992a1.992 1.992 0 00-3.984 0v58.04h-7.193L37.778 42.5h.127c1.1 0 1.992-.892 1.992-1.992V27.223c0-4.422-2.899-8.179-6.896-9.474a5.978 5.978 0 002.919-5.132 5.983 5.983 0 00-5.977-5.976 5.983 5.983 0 00-5.977 5.976 5.979 5.979 0 002.916 5.13c-3.999 1.294-6.9 5.052-6.9 9.476v13.285c0 1.1.892 1.992 1.992 1.992h.12l1.096 17.531h-9.198c-1.1 0-1.992.892-1.992 1.992v3.985a1.992 1.992 0 003.984 0v-1.992h35.86v1.992a1.992 1.992 0 103.984 0v-3.985c0-1.1-.892-1.992-1.992-1.992zM29.943 10.625c1.098 0 1.992.894 1.992 1.992a1.994 1.994 0 01-1.992 1.992 1.994 1.994 0 01-1.992-1.992c0-1.098.893-1.992 1.992-1.992zm-5.977 16.598a5.98 5.98 0 015.974-5.973 5.98 5.98 0 015.973 5.973v11.293H23.966V27.223zm2.12 15.277h7.7L32.69 60.031h-5.507L26.087 42.5z"/></symbol><symbol viewBox="0 0 24.01 24.01" id="phone" xmlns="http://www.w3.org/2000/svg"><g clip-path="url(#amclip0_2_1213)"><path d="M23.948 18.596c-.068-.205-.5-.506-1.295-.904a39.775 39.775 0 00-.92-.511 85.168 85.168 0 01-1.083-.597 36.067 36.067 0 01-.912-.528 22.128 22.128 0 00-.426-.298 4.786 4.786 0 00-.605-.367 1.117 1.117 0 00-.486-.12c-.227 0-.51.163-.852.487-.34.324-.653.676-.937 1.057-.284.38-.585.732-.903 1.056-.318.324-.58.486-.784.486a1.16 1.16 0 01-.384-.085 3.991 3.991 0 01-.35-.144 6.374 6.374 0 01-.408-.24 15.886 15.886 0 00-.324-.196c-1.557-.863-2.892-1.852-4.006-2.965-1.113-1.114-2.102-2.45-2.966-4.006a9.956 9.956 0 00-.196-.324 6.125 6.125 0 01-.239-.41 3.692 3.692 0 01-.144-.349 1.153 1.153 0 01-.086-.383c0-.205.162-.466.486-.784.324-.318.677-.62 1.057-.903.38-.284.733-.597 1.057-.938.324-.34.486-.625.486-.852 0-.159-.04-.32-.12-.486a4.738 4.738 0 00-.366-.605c-.165-.238-.264-.38-.299-.426-.17-.284-.346-.588-.528-.912-.182-.324-.38-.685-.597-1.082a40.51 40.51 0 00-.51-.92C5.91.55 5.607.119 5.403.05A.955.955 0 005.046 0c-.307 0-.707.057-1.202.17-.494.114-.883.233-1.167.358-.569.239-1.17.932-1.807 2.08C.29 3.676 0 4.733 0 5.778c0 .307.02.605.06.895.04.29.111.616.213.98.103.364.185.634.247.81.063.176.18.49.35.946.17.454.272.732.307.835a15.44 15.44 0 001.414 2.983c.897 1.454 2.122 2.957 3.673 4.508 1.551 1.551 3.054 2.776 4.509 3.674.875.545 1.87 1.016 2.983 1.414.102.034.38.136.835.307.454.17.77.287.946.35.176.062.446.145.809.247.364.102.69.174.98.214.29.039.588.06.895.06 1.045 0 2.102-.29 3.17-.87 1.148-.637 1.841-1.239 2.08-1.807.125-.284.244-.673.358-1.168.114-.494.17-.894.17-1.201a.951.951 0 00-.05-.36z"/></g><defs><clipPath id="amclip0_2_1213"><path d="M0 0h24v24H0z"/></clipPath></defs></symbol><symbol viewBox="0 0 12.87 27" id="right" xmlns="http://www.w3.org/2000/svg"><path d="M5 6l12.086 12.086a2 2 0 010 2.828L5 33"/></symbol><symbol viewBox="0 0 423.88 410.59" id="spot" xmlns="http://www.w3.org/2000/svg"><path d="M260.495 23.936C239.952-9.624 178.646-.702 150.56 7.955 61.444 40.764-25.469 141.288 6.922 276.642c11.235 46.946 55.37 38.955 101.108 38.955 45.74 0 25.577 19.441 88.97 52.403s99.483-24.02 138-41c38.517-16.98 63.407-70.069 61-129-2.407-58.931-38.1-89.021-71-107-32.9-17.98-38.827-25.112-64.505-67.064z"/></symbol><symbol viewBox="0 0 11.07 16.69" id="start" xmlns="http://www.w3.org/2000/svg"><path d="M11.407 9.429l-8.46 6.74c-.808.641-1.998.065-1.998-.967V1.722c0-1.03 1.19-1.607 1.998-.965l8.46 6.74c.614.492.614 1.44 0 1.933z"/></symbol><symbol viewBox="0 0 34.91 34.94" id="surfboard" xmlns="http://www.w3.org/2000/svg"><path d="M34.548.452a1.015 1.015 0 00-.81-.294c-.126.012-3.117.296-7.22 1.673C13.166 5.943 4.33 18.89.221 28.256c-.259.618.264 1.446 1.046 1.378l4.538-.442-.441 4.538c-.049.653.585 1.34 1.378 1.046 16.305-7.429 26.25-18.8 28.1-33.514.027-.3-.08-.597-.294-.81zM21.41 22.788a60.09 60.09 0 01-5.219 4.236V9.721a32.623 32.623 0 015.22-3.476v16.543zM11.494 30.1a50.861 50.861 0 01-3.939 2.097l.393-4.036c.058-.525-.428-1.19-1.11-1.11l-4.035.392c1.363-2.891 5.034-9.624 11.356-15.89v16.88a57.998 57.998 0 01-2.665 1.667zm19.73-22.208c-1.194 3.537-3.512 8.643-7.781 12.953V5.232c2.78-1.343 7.03-2.547 9.19-2.866a37.061 37.061 0 01-1.41 5.525z"/></symbol><symbol viewBox="0 0 68.28 68" id="surfboards" xmlns="http://www.w3.org/2000/svg"><path d="M67.58 64.784c-.105-.135-2.63-3.336-7.98-6.493-2.61-1.541-6.209-3.24-10.814-4.482a69.333 69.333 0 002.564-13.706c.541-6.407.157-12.667-1.142-18.607-1.629-7.443-4.704-14.392-9.14-20.655a1.992 1.992 0 00-3.251 0 57.452 57.452 0 00-3.787 6.122A57.406 57.406 0 0030.243.84a1.992 1.992 0 00-3.251 0c-4.437 6.262-7.512 13.212-9.14 20.655-1.3 5.94-1.684 12.2-1.143 18.607a69.254 69.254 0 002.646 13.981c-4.245 1.204-7.67 2.76-10.234 4.18C3.467 61.392.623 64.55.504 64.682A1.992 1.992 0 001.992 68h64.016a1.992 1.992 0 001.572-3.216zM20.963 26.958l13.363-9.08a52.198 52.198 0 011.046 3.84L20.53 31.804c.073-1.56.212-3.18.433-4.846zm1.01-5.504a52.327 52.327 0 016.646-15.88 52.556 52.556 0 014.322 8.428l-10.967 7.452zm-1.477 15.19L36.18 25.987c.645 4.373.776 8.924.388 13.64a65.613 65.613 0 01-2.244 12.389 57.109 57.109 0 00-11.085 1.126 65.327 65.327 0 01-2.558-13.375 61.201 61.201 0 01-.184-3.123zm14.177 19.353c10.801 0 18.316 3.054 22.718 5.617a33.152 33.152 0 013.58 2.402H7.435c4.744-3.346 13.779-8.019 27.24-8.019zm4.771-50.423c6.314 9.995 8.986 21.436 7.947 34.053a65.47 65.47 0 01-2.508 13.298 54.31 54.31 0 00-6.45-.792 69.732 69.732 0 002.092-12.03c.541-6.407.157-12.667-1.142-18.607a56.366 56.366 0 00-3.169-9.964 52.205 52.205 0 013.23-5.958z"/></symbol><symbol viewBox="0 0 24.11 24.02" id="thickness" xmlns="http://www.w3.org/2000/svg"><path d="M26.594 9.484H5.454a1.406 1.406 0 000 2.813h21.14a1.406 1.406 0 000-2.813zM27.063 4H4.938a.937.937 0 100 1.875h22.125a.937.937 0 100-1.875zm-1.407 19.313H6.391a2.344 2.344 0 100 4.687h19.265a2.344 2.344 0 100-4.688zm.469-7.407H5.922a1.875 1.875 0 000 3.75h20.203a1.875 1.875 0 100-3.75z"/></symbol><symbol viewBox="0 0 44 44.06" id="tool" xmlns="http://www.w3.org/2000/svg"><g clip-path="url(#atclip0_2_1032)"><path d="M46.71 19.555h-9.224l.003-.024a10.462 10.462 0 002.555-3.267 1.289 1.289 0 00-1.153-1.866H36.9a11.404 11.404 0 00-1.882-3.367 10.464 10.464 0 00-.504-4.111 1.289 1.289 0 00-2.135-.504l-1.41 1.41a11.393 11.393 0 00-3.703-1.05c-.973-1.145-2.094-2.052-3.269-2.64a1.29 1.29 0 00-1.865 1.153v2.076a11.405 11.405 0 00-3.368 1.882 10.459 10.459 0 00-4.11.504 1.29 1.29 0 00-.505 2.134l1.41 1.41A11.394 11.394 0 0014.51 17a10.504 10.504 0 00-2.162 2.554H5.29c-.712 0-1.289.577-1.289 1.289V26c0 .712.577 1.29 1.29 1.29h1.374v19.42c0 .712.577 1.29 1.29 1.29h5.155a1.29 1.29 0 001.29-1.29v-4.37L26 37.702l11.602 4.64v4.37c0 .712.577 1.289 1.289 1.289h5.156a1.29 1.29 0 001.289-1.29V27.29h1.375A1.29 1.29 0 0048 26v-5.156a1.29 1.29 0 00-1.29-1.29zm-30.172-.882a1.29 1.29 0 00.498-.943 8.877 8.877 0 011.22-4.018 1.29 1.29 0 00-.199-1.566l-.347-.347a8.36 8.36 0 011.308.064 1.29 1.29 0 001.018-.316 8.891 8.891 0 013.709-1.982c.569-.147.966-.66.966-1.247v-.51c.307.302.602.635.882.996.228.294.571.475.942.498a8.876 8.876 0 014.018 1.22 1.29 1.29 0 001.567-.199l.347-.347c.013.43-.008.867-.064 1.308-.047.369.068.74.315 1.018a8.892 8.892 0 011.982 3.709c.147.568.66.966 1.248.966h.486c-.296.315-.62.609-.972.882a1.29 1.29 0 00-.498.942 9.16 9.16 0 01-.077.754h-5.242A3.872 3.872 0 0026 14.399a3.872 3.872 0 00-3.645 5.156h-6.789c.296-.315.62-.61.972-.882zm10.751-.407A1.29 1.29 0 0126 19.555a1.29 1.29 0 01-1.29-1.29 1.29 1.29 0 012.578 0zM11.82 45.422H9.242V27.289h2.578v18.133zm2.578-5.857V33.06l8.131 3.252-8.13 3.253zm23.204 0l-8.131-3.252 8.13-3.253v6.505zm0-9.281L26 34.923l-11.602-4.64v-2.995h23.204v2.994zm5.156 15.138H40.18V27.289h2.578v18.133zm2.664-20.711H6.578v-2.578h38.844v2.578z"/></g><defs><clipPath id="atclip0_2_1032"><path transform="translate(4 4)" d="M0 0h44v44H0z"/></clipPath></defs></symbol><symbol viewBox="0 0 7.79 6.75" id="triangle-down" xmlns="http://www.w3.org/2000/svg"><path d="M4 7L.103.25h7.794L4 7z"/></symbol><symbol viewBox="0 0 7.79 6.75" id="triangle-up" xmlns="http://www.w3.org/2000/svg"><path d="M4 .5l3.897 6.75H.103L4 .5z"/></symbol><symbol viewBox="0 0 24 20.09" id="tw" xmlns="http://www.w3.org/2000/svg"><g clip-path="url(#awclip0_2_1214)"><path d="M23.346 2.42c-.98.588-2.027.98-3.139 1.242a4.838 4.838 0 00-3.597-1.57c-2.746 0-4.904 2.29-4.904 5.036 0 .392.065.785.13 1.177C7.716 8.044 4.12 6.016 1.7 2.943a5.466 5.466 0 00-.654 2.55c0 1.766.85 3.27 2.224 4.185-.785 0-1.57-.261-2.224-.653v.13c0 2.42 1.7 4.513 3.924 4.97-.392.131-.85.197-1.308.197-.327 0-.654 0-.915-.066.654 2.027 2.42 3.466 4.577 3.532-1.7 1.373-3.793 2.157-6.147 2.157-.392 0-.785 0-1.177-.065a13.597 13.597 0 007.52 2.289c9.09 0 13.995-7.717 13.995-14.387v-.654c.98-.72 1.831-1.57 2.485-2.616-.85.393-1.831.654-2.812.785.98-.72 1.766-1.7 2.158-2.877z"/></g><defs><clipPath id="awclip0_2_1214"><path d="M0 0h24v24H0z"/></clipPath></defs></symbol><symbol viewBox="0 0 24.19 13.67" id="vk" xmlns="http://www.w3.org/2000/svg"><g clip-path="url(#axclip0_2_1215)"><path d="M23.87 17.526c0-.066-.066-.13-.066-.13-.393-.72-1.243-1.701-2.42-2.748-.523-.523-.85-.85-.98-1.046-.262-.327-.328-.654-.197-.98.13-.262.458-.786 1.112-1.636.327-.457.588-.784.785-1.046C23.541 8.044 24.195 6.801 24 6.278l-.065-.13c-.066-.197-.197-.262-.393-.328-.196-.065-.458-.065-.785 0H18.9c-.13 0-.13.066-.13.066h-.066l-.065.065c-.066 0-.066.065-.131.13-.066.066-.066.132-.131.197-.392.98-.85 1.962-1.308 2.812-.327.523-.588.98-.85 1.373s-.458.654-.654.85l-.458.458c-.13.13-.261.13-.327.13-.065 0-.13-.065-.196-.065-.13-.065-.196-.196-.261-.327-.066-.13-.131-.261-.131-.457s-.066-.393-.066-.523V6.8c0-.261 0-.458-.065-.588 0-.131-.065-.262-.13-.393-.066-.13-.132-.261-.262-.327l-.393-.196c-.458-.13-.98-.13-1.7-.13-1.57 0-2.55.065-3.008.326-.196.066-.327.196-.458.393-.13.196-.196.261-.065.327.523.065.85.261 1.046.523l.065.13c.066.131.131.327.197.589.065.262.065.589.13.916a6.279 6.279 0 010 1.569c-.065.458-.065.785-.13.981-.066.261-.066.458-.197.588l-.13.262c0 .065-.066.065-.066.065a.583.583 0 01-.327.066c-.13 0-.261-.066-.392-.196-.196-.131-.327-.262-.523-.458a3.167 3.167 0 01-.589-.85c-.196-.393-.458-.785-.72-1.308l-.195-.392c-.131-.262-.327-.589-.524-1.047-.196-.458-.392-.85-.588-1.308-.066-.13-.196-.261-.327-.392h-.066c-.065-.065-.13-.065-.196-.13-.065 0-.196-.066-.261-.066H.85c-.393 0-.655.13-.786.261v.066C0 6.147 0 6.212 0 6.278c0 .065 0 .196.065.327a54.383 54.383 0 001.635 3.4c.589 1.112 1.112 1.962 1.504 2.616.458.654.85 1.308 1.308 1.897.458.588.72.98.916 1.111.13.197.261.262.327.393l.327.327c.196.196.523.457.85.72.392.26.785.522 1.308.85a6.105 6.105 0 001.635.653c.654.196 1.242.262 1.83.196h1.44a1 1 0 00.653-.261l.066-.066c.065-.065.065-.13.065-.261s.066-.196.066-.327c0-.327 0-.654.065-.981.065-.262.13-.523.196-.654.066-.13.196-.262.262-.392.13-.131.196-.131.196-.197.065 0 .065-.065.13-.065.197-.065.459 0 .72.196.262.196.523.458.785.72.261.261.523.588.85.98.327.328.654.654.85.785l.262.131c.196.13.392.196.654.262.261.065.523.13.719.065l3.204-.065c.327 0 .589-.066.72-.131.196-.131.261-.196.327-.327.065-.131.065-.262 0-.458 0 0 0-.13-.066-.196z"/></g><defs><clipPath id="axclip0_2_1215"><path d="M0 0h24v24H0z"/></clipPath></defs></symbol><symbol viewBox="0 0 12.83 16.7" id="volume" xmlns="http://www.w3.org/2000/svg"><path d="M11.188.766L5.016 5.674a3.132 3.132 0 00-1.497-.372 3.158 3.158 0 00-3.16 3.16 3.158 3.158 0 003.16 3.161c.54 0 1.05-.14 1.497-.372l6.172 4.918c.809.641 1.999.065 1.999-.967V1.723c0-1.032-1.19-1.608-1.999-.957z"/></symbol><symbol viewBox="0 0 23.19 24" id="weight" xmlns="http://www.w3.org/2000/svg"><path d="M22.983 21.137L20.888 8.621a2.447 2.447 0 00-2.416-2.043h-3.148c.37-.643.58-1.388.58-2.181A4.401 4.401 0 0011.509 0a4.402 4.402 0 00-4.397 4.397c0 .793.211 1.538.58 2.181H4.545a2.447 2.447 0 00-2.416 2.044L.034 21.14A2.454 2.454 0 002.45 24h18.119a2.455 2.455 0 002.414-2.863zM11.509 2.561c1.011 0 1.835.824 1.835 1.836a1.837 1.837 0 01-1.835 1.835 1.838 1.838 0 01-1.836-1.835c0-1.013.823-1.836 1.836-1.836z"/></symbol><symbol viewBox="0 0 16.97 16.97" id="width" xmlns="http://www.w3.org/2000/svg"><path d="M3.409 10.48L.513 7.583l.002 9.912h9.91L7.53 14.602l7.062-7.06 2.895 2.895V.524H7.573l2.895 2.895-7.06 7.06z"/></symbol></svg>